[Header]
FileType HTR
DataType HTRS
FileVersion 1
NumSegments 22
NumFrames 4
DataFrameRate 24
EulerRotationOrder ZYX
CalibrationUnits mm
RotationUnits Degrees
GlobalAxisofGravity Y
BoneLengthAxis Y
ScaleFactor 1.0
[SegmentNames&Hierarchy]
reference	GLOBAL
Hips	reference
Spine	Hips
Spine1	Spine
Neck	Spine1
Head	Neck
LeftShoulder	Spine1
LeftArm	LeftShoulder
LeftForeArm	LeftArm
LeftHand	LeftForeArm
RightShoulder	Spine1
RightArm	RightShoulder
RightForeArm	RightArm
RightHand	RightForeArm
LeftUpLeg	Hips
LeftLeg	LeftUpLeg
LeftFoot	LeftLeg
LeftToeBase	LeftFoot
RightUpLeg	Hips
RightLeg	RightUpLeg
RightFoot	RightLeg
RightToeBase	RightFoot
[BasePosition]
reference	0	0	0	0	0	0	1
Hips	0	0	0	0	0	0	1
Spine	0	0	0	0	-0	90	1
Spine1	0	0	0	0	0	0	1
Neck	0	0	0	-7.352327771	-7.352327771	90	1
Head	0	0	0	0	-0	90	1
LeftShoulder	0	0	0	0	0	0	1
LeftArm	0	0	0	0	0	0	1
LeftForeArm	0	0	0	0	0	0	1
LeftHand	0	0	0	0	0	0	1
RightShoulder	0	0	0	0	-0	180	1
RightArm	0	0	0	0	-0	180	1
RightForeArm	0	0	0	0	-0	180	1
RightHand	0	0	0	0	-0	180	1
LeftUpLeg	0	0	0	0	-0	-90	1
LeftLeg	0	0	0	0	-0	-90	1
LeftFoot	0	0	0	66.57146043	-66.57146043	-90	1
LeftToeBase	0	0	0	0	-90	0	1
RightUpLeg	0	0	0	0	-0	-90	1
RightLeg	0	0	0	0	-0	-90	1
RightFoot	0	0	0	66.57146043	-66.57146043	-90	1
RightToeBase	0	0	0	0	-90	0	1
[reference]
19	0	0	0	0	-0	0	1.0
20	0	0	0	0	-0	0	1.0
21	0	0	0	0	-0	0	1.0
22	0	0	0	0	-0	0	1.0
[Hips]
19	-0.9659430981	8.699615479	6.455113888	-7.709747314	-110.9469452	16.45689392	1.0
20	-0.9785497189	8.689807892	6.443189621	-2.848222017	-108.9587784	7.444963455	1.0
21	-0.9828537703	8.680007935	6.425056458	-3.148799181	-109.1033325	7.656189442	1.0
22	-0.9870834351	8.670068741	6.40682888	-3.329636574	-109.0523071	7.833533287	1.0
[Spine]
19	0	0.7457100153	0	-10.14275742	2.021331787	-88.38619995	1.0
20	0	0.7457100153	0	-6.466135979	1.060768247	-89.89499664	1.0
21	0	0.7457100153	0	-6.715023041	1.383423567	-89.64621735	1.0
22	0	0.7457100153	0	-6.60110569	1.586948156	-89.28218079	1.0
[Spine1]
19	0	2.140589952	0	9.27195549	0.3955596387	3.57617712	1.0
20	0	2.140589952	0	8.262136459	0.236312896	1.894594193	1.0
21	0	2.140589952	0	7.67627573	0.333700031	1.787189126	1.0
22	0	2.140589952	0	7.063694	0.4065671563	1.579354405	1.0
[Neck]
19	0	2.32246995	0	-15.78092003	-5.644073963	-88.26081085	1.0
20	0	2.32246995	0	-15.86668015	-5.521670341	-88.2949295	1.0
21	0	2.32246995	0	-15.57933044	-5.262750626	-88.30431366	1.0
22	0	2.32246995	0	-15.16369152	-5.227273464	-88.25239563	1.0
[Head]
19	0	1.409579992	0.1818799973	-8.370184898	0.2529634535	-94.24526978	1.0
20	0	1.409579992	0.1818799973	-6.311685562	0.3964136541	-95.17604828	1.0
21	0	1.409579992	0.1818799973	-4.692266941	0.5825685859	-96.585495	1.0
22	0	1.409579992	0.1818799973	-4.33166647	0.664434433	-97.52752686	1.0
[LeftShoulder]
19	0.3668199778	1.946700096	-0.02662999928	-13.14146519	-12.72794151	-2.359663248	1.0
20	0.3668199778	1.946700096	-0.02662999928	-14.46744347	-12.38481712	-1.905641437	1.0
21	0.3668199778	1.946700096	-0.02662999928	-15.24260235	-12.08478546	-1.576187253	1.0
22	0.3668199778	1.946700096	-0.02662999928	-15.76955032	-12.24095535	-1.961291075	1.0
[LeftArm]
19	1.140689969	0	0	28.71855927	22.62318039	-68.27210999	1.0
20	1.140689969	0	0	32.20740509	20.54683113	-66.20139313	1.0
21	1.140689969	0	0	35.30846786	17.63871193	-65.37255096	1.0
22	1.140689969	0	0	38.17592239	15.29422665	-65.22996521	1.0
[LeftForeArm]
19	2.749800205	0	0	-131.6478882	-63.90694809	143.2743683	1.0
20	2.749800205	0	0	-139.0194702	-52.46911621	155.5443726	1.0
21	2.749800205	0	0	-138.8447266	-47.08787155	158.8318024	1.0
22	2.749800205	0	0	-136.2580261	-45.69788361	158.1151428	1.0
[LeftHand]
19	2.295179844	0	0	-9.053124428	-22.0091114	7.021974564	1.0
20	2.295179844	0	0	-8.344139099	-23.697649	8.81227684	1.0
21	2.295179844	0	0	-7.439694405	-24.7515831	9.870839119	1.0
22	2.295179844	0	0	-7.563497543	-24.53616714	9.253787994	1.0
[RightShoulder]
19	-0.3601199985	1.946700096	-0.02662999928	-4.887850285	2.479806185	176.7701721	1.0
20	-0.3601199985	1.946700096	-0.02662999928	-4.123828888	2.641663313	177.2919617	1.0
21	-0.3601199985	1.946700096	-0.02662999928	-4.496931076	2.791579962	177.1461029	1.0
22	-0.3601199985	1.946700096	-0.02662999928	-4.879164219	3.011884212	177.2004852	1.0
[RightArm]
19	-1.140689969	0	0	47.4777832	-1.548063755	-109.8332901	1.0
20	-1.140689969	0	0	50.07864761	1.517706037	-111.8503723	1.0
21	-1.140689969	0	0	51.72433472	3.720119238	-112.5945358	1.0
22	-1.140689969	0	0	52.3794632	5.313075066	-112.8045807	1.0
[RightForeArm]
19	-2.749800205	0	0	-86.30218506	67.3712616	-291.9053345	1.0
20	-2.749800205	0	0	-101.9868393	56.80774689	-315.3231201	1.0
21	-2.749800205	0	0	-105.7542725	50.47276306	-322.6605225	1.0
22	-2.749800205	0	0	-106.7094421	48.30698395	-325.3496094	1.0
[RightHand]
19	-2.295179844	0	0	0.115757376	18.07122612	-197.0768738	1.0
20	-2.295179844	0	0	0.5602931976	17.50796509	-199.0830688	1.0
21	-2.295179844	0	0	-0.2242102027	17.90237808	-200.1320648	1.0
22	-2.295179844	0	0	0.4144358635	17.79650116	-200.4024811	1.0
[LeftUpLeg]
19	0.9094099998	0	0	-6.126419067	9.58168602	96.15066528	1.0
20	0.9094099998	0	0	-1.479338884	4.87698555	92.73799133	1.0
21	0.9094099998	0	0	-0.7475897074	5.484177589	93.01825714	1.0
22	0.9094099998	0	0	-0.3224450946	5.113294125	93.19262695	1.0
[LeftLeg]
19	0	-4.498080254	0	12.77290249	-7.012674332	86.2346344	1.0
20	0	-4.498080254	0	8.922159195	-2.00638938	88.65330505	1.0
21	0	-4.498080254	0	7.258618355	-2.31462574	88.5125351	1.0
22	0	-4.498080254	0	6.534257889	-1.648193479	88.47018433	1.0
[LeftFoot]
19	0	-3.729400158	0	-70.30055237	104.9815826	-15.92898273	1.0
20	0	-3.729400158	0	-67.51773834	103.6839294	-18.57739067	1.0
21	0	-3.729400158	0	-66.79653168	103.9884262	-18.55316162	1.0
22	0	-3.729400158	0	-66.3583374	103.7138596	-18.70848656	1.0
[LeftToeBase]
19	0	-0.5911099911	1.364109993	0	0	0	1.0
20	0	-0.5911099911	1.364109993	0	0	0	1.0
21	0	-0.5911099911	1.364109993	0	0	0	1.0
22	0	-0.5911099911	1.364109993	0	0	0	1.0
[RightUpLeg]
19	-0.9094099998	0	0	-13.63735867	-8.794705391	97.14266968	1.0
20	-0.9094099998	0	0	-9.310172081	-10.93566895	92.78994751	1.0
21	-0.9094099998	0	0	-8.755126953	-9.196697235	92.95507813	1.0
22	-0.9094099998	0	0	-8.57648468	-8.829901695	92.97695923	1.0
[RightLeg]
19	0	-4.498080254	0	20.23371124	0.7860674262	84.19389343	1.0
20	0	-4.498080254	0	18.40574646	0.1901853085	85.18890381	1.0
21	0	-4.498080254	0	17.18896484	-1.418537855	84.86070251	1.0
22	0	-4.498080254	0	17.07524109	-1.863903284	84.85657501	1.0
[RightFoot]
19	0	-3.729400158	0	66.20384979	58.70011902	110.1989441	1.0
20	0	-3.729400158	0	66.5682373	58.99980927	110.5523987	1.0
21	0	-3.729400158	0	67.36780548	59.21420288	110.9284821	1.0
22	0	-3.729400158	0	67.88894653	59.31331635	111.0771027	1.0
[RightToeBase]
19	0	-0.5911099911	1.364109993	0	0	0	1.0
20	0	-0.5911099911	1.364109993	0	0	0	1.0
21	0	-0.5911099911	1.364109993	0	0	0	1.0
22	0	-0.5911099911	1.364109993	0	0	0	1.0
[EndOfFile]
